<svg xmlns="http://www.w3.org/2000/svg" xml:space="preserve" fill-rule="evenodd" stroke-linecap="round" stroke-linejoin="round" stroke-miterlimit="1.5" clip-rule="evenodd" viewBox="0 0 1617 2163">
  <path fill="#200" stroke="#000" stroke-width="4.17" d="M1497.9 1253.81c1.107-3.23 2.243-7.512 3.406-12.948-14.176 21.413-12.208 23.198-3.406 12.948l-7.262 6.653c-1.698-9.923-21.234-124.034-21.234-124.034-18.473-16.264-51.853 20.59-55.084 24.156-48.905 55.626-78.261 96.095 0 53.125 73.516 13.788 53.777 159.476 13.685 168.335l-50.833-84.713c-5.634 14.03-11.95 27.648-27.318 35.779l-28.301-35.779c-.072 23.185.881 46.95-22.61 56.878-14.591 38.989 11.459 39.72 50.911 27.835 36.067 40.132-40.547 57.127-20.872 59.116l-30.039 25.487-36.146 151.289-464.216 462.383-120.53 45.716c-120.243 8.549-211.603-13.846-257.173-85.299-55.39-79.367-145.913-211.206-195.6-294.03-20.7-118.14-120.13-174.924-135.007-336.101-4.902-14.146 3.81-36.181 8.066-56.396 14.037-31.703 54.657-33.201 52.001 0 62.794 77.281 62.223 189.279 96.94 293.486 48.949 62.542 64.243 7.371 46.607-73.899-18.724-20.807-22.556-47.972 0-86.401 43.189 11.439 64.459-1.678 63.03-40.224l89.288 126.625 94.328-55.062h93.117c14.28-71.788 29.043-65.835 57.376-52.087 1.195 28.36-2.043 105.03-87.547 107.149-14.457 37.769-37.992 22.991-62.946 0 17.273 37.597 12.689 47.981-21.47 21.544v74.643l246.505-22.288c27.892 32.227 54.462 38.713 0 63.651-236.891-48.753-292.744 50.589-408.651 0 27.974 72.178 209.814 78.158 341.033 197.211-4.174 43.958-145.418-22.979-193.46-40.127 34.397 47.623 73.75 84.022 129.16 84.057 29.017-19.793 40.505-6.196 64.3 11.976-5.343 4.942-14.905 24.326 14.583 46.606 106.475-25.657 191.041-78.581 213.322-209.028 25.794-38.657 61.789-58.196 117.642-40.519-2.796-36.512-5.36-73.048 34.901-113.827-12.529-2.304-24.792-11.242-34.901-73.899-10.762-37.106 6.775-80.659 34.901-126.625 32.243-27.763 54.129-65.883 30.171-149.84-.394-41.511 2.493-64.776 54.572-94.051 10.511-7.434 68.128-106.334-40.147-71.967-4.384 15.074-2.426-30.199-183.776-68.785-13.649-2.904-119.243-25.371-173.65 16.54 119.943 1.695 209.505 9.87 232.793 52.245 34.645 28.422 38.382 73.492 0 61.159-139.647 31.5-308.563 8.07-285.828 48.389-36.154 3.64-30.737-32.187-87.05-63.783-54.261-3.808-43.553-48.568 8.167-98.01-7.815 4.814-88.282 25.737-93.667 17.756-12.192-18.066 26.427-75.341 30.298-81.083 78.411-31.599 95.373-36.12 142.252-26.172l160.484 26.172h235.552v-63.044l-65.072-165.482c-38.559 18.493-145.774 51.054-156.058 0-12.345 15.794-28.38-23.791-14.422-96.651-9.328-9.805-22.835 143.571-160.484 49.093-27.87-19.129 32.463-59.331 0-49.093-201.019 58.719-308.444 50.807-355.616 0-29.934 18.015-49.146 51.38-127.553 0l17.916 49.093c-54.134 24.331-41.96 53.443-53.071 47.558 3.258 55.069-15.787 57.765-43.869 39.237 62.709 118.011-33.372 102.469 12.05 163.117l131.497 26.172c110.942 18.568 139.523 92.358 152.318 176.731-4.048 104.263-13.03 206.519-56.048 294.923l-33.24-40.224v-92.962c29.108-17.491 15.447-46.685 33.24-56.878-37.566-11.269-61.655-27.543-49.109-83.622-24.958 24.928-42.994 24.46-47.947 24.741-16.708-49.19-38.249 20.395-89.842 12.559h-68.868l-18.404 46.322c-40.091 38.386-54.884 29.881-40.87-32.019l23.222-72.84-44.661-293.162C12.91 712.472 8.485 552.404 98.337 461.791c36.061-139.392 107.598-233.902 223.216-272.643C432.462 78.664 574.042 17.155 784.978 66.394c248.509-1.38 340.321 80.076 437.148 158.88 126.804 27.751 164.881 89.795 192.194 142.468 125.226 196.861 213.301 405.851 105.827 678.678 86.017 47.128 3.24 177.71-22.247 207.39Zm-1272.62-99.964c-11.451-7.977-13.241-82.285-23.785-77.465-24.702 11.293-44.481 71.177-10.869 92.153 21.386 13.347 28.9-12.954 34.654-14.688Zm110.454-25.484c6.724 3.096 7.239 15.589 5.67 20.577-2.507 7.968-5.688 15.718-8.079 23.722l25.117-21.126c-5.258-12.478-1.754-16.059-14.328-21.111-3.378-1.358-7.696-1.966-8.38-2.062Zm384.459 18.601c-7.403 5.93-5.749 12.614-4.741 13.803 6.027 7.109 21.624 10.886 26.326 11.151 8.979.506 17.996.142 26.969.744v-36.035c-7.888 1.673-15.584 4.175-23.472 5.848-4.506.956-9.135 1.22-13.669 2.031-3.831.686-7.697 1.301-11.413 2.458Z"/>
</svg>
